<svg width="191" height="49" viewBox="0 0 191 49" fill="none" xmlns="http://www.w3.org/2000/svg">
<path fill-rule="evenodd" clip-rule="evenodd" d="M147.542 0.869051C147.542 2.08623 149.401 2.6094 149.572 4.71277C149.187 4.606 149.305 4.57397 148.995 4.3284C148.162 3.6771 147.264 3.5383 146.153 3.5383C144.957 3.5383 143.728 4.83021 143.205 5.60963C141.837 7.65962 141.25 11.8557 143.333 13.8202C143.718 14.1833 143.974 14.1192 144.647 14.1085C146.677 14.0872 148.803 14.3114 150.512 14.653C152.445 15.0374 158.524 16.5108 160.458 17.5252C160.084 18.0376 159.347 18.4647 158.877 18.9345C156.89 20.9418 155.544 22.3298 152.232 22.3298C149.251 22.3298 145.726 19.8741 142.297 19.8741C141.271 19.8741 140.15 19.9061 139.209 20.2051C138.665 20.3759 138.195 20.7176 137.703 20.835C135.973 19.6712 135.353 16.2012 135.353 14.1085C135.353 11.7169 135.898 9.00492 137.415 7.20051C137.778 6.77343 138.739 5.99401 139.306 5.99401C140.758 5.99401 142.745 7.13644 142.938 4.81954C141.88 4.54194 141.196 3.75184 139.519 3.75184C134.958 3.75184 132.575 9.67757 132.575 13.6814C132.575 16.372 132.725 18.7957 134.189 21.0379C134.744 21.892 134.808 21.6465 133.889 23.9527C133.248 25.5756 131.86 29.1951 131.721 30.8607C132.875 30.3055 134.242 30.3269 135.321 28.1594C136.09 26.622 136.314 24.604 136.314 22.4259L139.936 22.6501C142.318 22.917 144.797 22.9384 147.136 23.248C149.444 23.547 151.623 23.8673 153.845 24.3371C154.529 24.4865 154.668 24.6147 155.362 24.3798C157.616 23.6217 158.834 20.4506 161.312 20.3973C161.697 21.1874 161.9 21.3368 162.637 21.8493C163.342 22.3298 163.556 22.5967 163.556 23.7071C162.274 23.4082 160.981 23.6537 160.052 24.5826C159.518 25.1165 158.973 25.4902 158.321 25.8425C158.321 27.7537 157.498 30.8394 158.983 32.4409C159.71 33.2203 160.244 33.3698 161.419 33.6367C161.419 32.6117 161.141 31.7896 160.96 30.8927C160.308 27.6042 160.671 28.768 160.671 26.5899C161.088 26.4938 161.537 26.2696 162.017 26.1201C163.011 25.8212 165.906 25.4688 165.906 24.241C165.906 22.2871 165.062 21.2087 164.068 20.2051C163.224 19.3509 161.558 18.1765 161.526 16.7671C162.626 16.7671 165.575 15.6567 166.44 15.2723C170.008 13.6708 172.828 10.9802 174.965 7.77706C175.264 7.33931 176.044 6.14348 176.161 5.66302C178.18 7.019 180.691 7.34998 182.55 8.46039C183.095 8.79138 184.109 9.21846 184.173 9.93382C183.757 10.0299 183.714 10.158 183.233 10.2755C182.966 10.3395 182.496 10.4463 182.144 10.4677C181.332 10.5104 180.402 10.4677 179.58 10.4677C178.127 10.4677 178.458 10.3395 177.678 11.1296C175.371 13.4786 173.961 17.6106 173.288 21.0486C173.085 22.1163 172.679 21.6251 171.322 22.9277C170.489 23.7285 169.591 24.8282 168.993 25.8319C168 27.5081 167.188 29.2805 166.728 31.2558C166.13 33.8396 166.461 37.6299 168.78 39.1781C168.78 35.7615 169.143 30.9782 170.852 28.1167C175.734 20.0556 174.634 27.4761 176.792 17.2903C177.144 15.8702 177.646 14.3434 178.885 13.5106C179.836 12.8807 184.43 13.6281 186.043 9.77366C186.331 9.07966 186.62 7.8518 186.62 6.93358C182.689 6.93358 180.103 4.15756 177.005 4.15756C176.856 3.5383 177.005 2.90836 177.005 2.23571C177.005 0.901083 176.29 1.27478 175.403 1.27478C174.911 3.36747 173.993 5.03308 172.775 6.65598C171.023 8.99424 168.715 10.9375 166.109 12.2721C161.654 14.557 156.473 14.5676 151.965 12.3041C150.886 11.7596 151.249 11.7275 150.127 12.208C148.525 12.8913 147.521 12.8807 145.854 12.6564C144.989 12.539 145.106 12.5924 144.893 11.8023C144.679 10.9908 144.316 9.66689 144.316 8.74867C144.316 6.93358 145.32 5.89791 147.179 6.31432C148.728 6.66666 147.542 9.92314 149.23 9.92314C150.565 9.92314 150.726 9.58148 151.249 8.31091C152.05 6.3677 152.082 3.27137 150.929 1.50967C150.106 0.239109 147.542 -0.807236 147.542 0.869051Z" fill="white"/>
<path fill-rule="evenodd" clip-rule="evenodd" d="M128.741 37.8117C131.582 37.8117 133.003 35.8578 134.958 33.8825C140.759 28.0636 144.028 32.3664 147.329 32.3664L149.572 32.2596C149.241 30.8609 146.303 29.3662 144.551 28.9498C139.103 27.6472 131.272 31.0745 129.221 36.1674C128.912 36.9361 128.847 37.5874 128.741 37.8117Z" fill="white"/>
<path fill-rule="evenodd" clip-rule="evenodd" d="M149.572 36.5303C149.572 37.7902 150.053 39.2636 151.068 39.9469C151.912 36.3381 153.61 33.6048 156.057 31.053C156.409 30.69 156.772 30.4231 157.05 30.0173C155.757 30.0173 155.063 30.1027 154.102 30.4871C151.922 31.3626 149.572 33.9038 149.572 36.5303Z" fill="white"/>
<path fill-rule="evenodd" clip-rule="evenodd" d="M163.673 39.1996C163.47 38.3455 162.274 36.5197 161.686 35.7403C161.494 35.4841 161.505 35.4947 161.291 35.2812C161.067 35.0463 161.045 34.9609 160.864 34.7473L159.892 33.9039C159.507 33.6049 159.24 33.4341 158.802 33.1778C158.3 32.8789 156.858 32.1742 156.195 32.1528C156.292 33.3487 157.819 35.751 158.834 36.776C159.486 37.4273 160.041 37.9184 160.885 38.3562C161.43 38.6231 162.915 39.1783 163.673 39.1996Z" fill="white"/>
<path fill-rule="evenodd" clip-rule="evenodd" d="M141.025 39.4127C141.741 39.4127 141.677 39.4768 142.201 39.1992C142.126 38.9429 141.677 38.3557 141.314 37.4161C140.63 35.6544 140.021 32.9958 137.607 32.793C137.607 34.9177 137.66 36.2843 138.739 37.8539C139.273 38.6333 140 39.4127 141.025 39.4127Z" fill="white"/>
<path fill-rule="evenodd" clip-rule="evenodd" d="M186.941 3.96516H187.582V1.40268L187.87 1.86179C187.987 2.09669 188.03 2.19278 188.148 2.43835C188.522 3.19642 188.468 3.43131 189.077 3.43131C189.43 3.43131 189.782 2.43835 190.039 1.93653L190.359 1.40268V3.96516H191V0.0146752C189.889 0.0146752 190.284 0.100091 189.718 1.08237C189.494 1.47742 189.205 1.86179 189.077 2.36361H188.863C188.757 1.88315 188.479 1.60555 188.255 1.15711C187.678 -0.00667884 187.923 0.0146752 186.941 0.0146752V3.96516Z" fill="white"/>
<path fill-rule="evenodd" clip-rule="evenodd" d="M183.415 0.548498H184.59V3.96513H185.338V0.548498H186.406V0.0146484H183.415V0.548498Z" fill="white"/>
<path d="M17.8454 30.7341C17.8454 33.0355 16.9395 34.8223 15.1279 36.0947C13.3537 37.3483 10.879 37.9751 7.70404 37.9751C6.97566 37.9751 6.25661 37.947 5.54691 37.8909C4.85588 37.8348 4.17419 37.7599 3.50184 37.6664C2.81081 37.5728 2.18515 37.4606 1.62485 37.3296C1.08323 37.1799 0.597647 37.0209 0.168088 36.8525L0.616323 31.576C0.803088 31.6696 1.10191 31.7912 1.51279 31.9409C1.92368 32.0719 2.45595 32.2496 3.10963 32.4742C4.41698 32.9232 5.81772 33.1477 7.31183 33.1477C8.35771 33.1477 9.21683 32.9887 9.88918 32.6706C10.5242 32.3712 10.8417 31.8286 10.8417 31.0428C10.8417 30.4066 10.5148 29.8921 9.86117 29.4992C9.52499 29.312 9.05808 29.1156 8.46043 28.9098C7.88146 28.7039 7.17176 28.5075 6.33132 28.3204C5.43485 28.1146 4.61308 27.8526 3.86603 27.5345C3.11897 27.2164 2.43728 26.8142 1.82095 26.3277C0.606985 25.3734 0 23.9047 0 21.9213C0 19.7135 0.915146 18.0014 2.74544 16.7852C4.57573 15.569 6.87294 14.9609 9.63705 14.9609C10.8697 14.9609 12.1304 15.0732 13.419 15.2977C14.054 15.41 14.633 15.5223 15.1559 15.6345C15.6789 15.7468 16.1551 15.8778 16.5847 16.0274L16.1645 21.0232C15.4548 20.649 14.577 20.3403 13.5311 20.097C12.4292 19.8725 11.374 19.7602 10.3654 19.7602C9.13279 19.7602 8.22698 19.9099 7.64801 20.2093C7.06904 20.5087 6.77955 20.9764 6.77955 21.6126C6.77955 22.1365 7.09705 22.5481 7.73205 22.8475C8.06823 23.0159 8.56316 23.203 9.21683 23.4088C9.88918 23.6146 10.7296 23.8392 11.7382 24.0824C13.8673 24.625 15.4174 25.4389 16.3886 26.5241C17.3598 27.6094 17.8454 29.0127 17.8454 30.7341Z" fill="#E75C25"/>
<path d="M26.3386 15.4381L26.3946 28.18C26.3946 28.3484 26.4133 28.6665 26.4507 29.1343C26.488 29.5833 26.6001 30.0605 26.7869 30.5657C26.9923 31.0521 27.2911 31.4918 27.6833 31.8848C28.0942 32.259 28.6638 32.4461 29.3922 32.4461C30.1206 32.4461 30.7836 32.3151 31.3813 32.0532C31.9976 31.7912 32.5205 31.3889 32.9501 30.8463C33.3983 30.3037 33.7438 29.6208 33.9866 28.7975C34.2294 27.9742 34.3508 27.0106 34.3508 25.9067V15.4381H41.0183V30.706C41.0183 31.6415 40.8316 32.549 40.458 33.4284C40.0845 34.2891 39.5709 35.0562 38.9172 35.7298C38.2822 36.4034 37.5352 36.946 36.676 37.3576C35.8356 37.7693 34.9391 37.9751 33.9866 37.9751H26.6468C25.5449 37.9751 24.5644 37.7693 23.7052 37.3576C22.8648 36.946 22.1458 36.4034 21.5481 35.7298C20.9505 35.0562 20.4929 34.2891 20.1754 33.4284C19.8766 32.549 19.7272 31.6415 19.7272 30.706L19.6711 15.4381H26.3386Z" fill="#E75C25"/>
<path d="M44.7521 48.7805H44.7241V15.5503H50.8594V19.255C51.0835 18.937 51.3449 18.6189 51.6438 18.3008C51.9613 17.9827 52.2788 17.6833 52.5963 17.4027C52.9324 17.122 53.2593 16.8694 53.5768 16.6449C53.913 16.4204 54.2211 16.2333 54.5013 16.0836C55.8086 15.41 57.2374 15.0732 58.7875 15.0732C61.9438 15.0732 64.4185 16.1491 66.2114 18.3008C67.9857 20.4151 68.8728 23.2966 68.8728 26.9451C68.8728 30.3131 67.9857 33.0074 66.2114 35.0282C65.3149 36.076 64.2784 36.8337 63.1018 37.3015C61.9438 37.7693 60.6178 38.0312 59.1237 38.0874C58.8622 38.1061 58.6101 38.1061 58.3673 38.0874C58.1245 38.0874 57.8817 38.0687 57.6389 38.0312H57.6109H57.4988L57.0786 37.947C57.0413 37.947 57.0132 37.9377 56.9946 37.919C56.9759 37.919 56.9479 37.919 56.9105 37.919C56.649 37.8441 56.3876 37.7599 56.1261 37.6664C55.8646 37.5915 55.5938 37.4886 55.3137 37.3576C54.9775 37.208 54.632 37.0115 54.2771 36.7683C53.941 36.525 53.6048 36.2537 53.2686 35.9543C53.2126 35.9169 53.1472 35.8701 53.0725 35.814C53.0165 35.7392 52.9605 35.6737 52.9044 35.6175C52.8297 35.5614 52.755 35.5053 52.6803 35.4492C52.6243 35.3743 52.5589 35.2995 52.4842 35.2246C52.4282 35.1685 52.3721 35.1124 52.3161 35.0562C52.2601 34.9814 52.2041 34.9065 52.148 34.8317C52.0733 34.7381 51.9986 34.6539 51.9239 34.5791C51.8492 34.4855 51.7745 34.392 51.6998 34.2984C51.6811 35.3837 51.6718 36.366 51.6718 37.2454V40.4168C51.6718 41.0904 51.541 41.764 51.2796 42.4376C51.0368 43.1299 50.7099 43.7848 50.2991 44.4022C49.8882 45.0197 49.4306 45.5904 48.9263 46.1143C48.4221 46.6569 47.9085 47.1246 47.3855 47.5176C46.8813 47.9105 46.3957 48.2192 45.9288 48.4437C45.4619 48.6683 45.0696 48.7805 44.7521 48.7805ZM53.1566 22.0616C52.1854 23.1843 51.6998 24.6157 51.6998 26.3558C51.6998 27.4036 51.8212 28.3204 52.064 29.1062C52.2881 29.7611 52.6243 30.3879 53.0725 30.9866C53.9316 32.1841 55.1549 32.7829 56.7424 32.7829C58.2552 32.7829 59.4599 32.2403 60.3563 31.155C61.2528 30.0698 61.701 28.6197 61.701 26.8048C61.701 24.8402 61.2621 23.2966 60.3843 22.1739C59.5066 20.9951 58.3019 20.4058 56.7705 20.4058C55.351 20.4058 54.1464 20.9577 53.1566 22.0616Z" fill="white"/>
<path d="M85.1699 37.4418V33.7933C84.7964 34.2797 84.4228 34.7288 84.0493 35.1404C83.7318 35.4959 83.3863 35.8514 83.0128 36.2069C82.6579 36.5437 82.3217 36.7963 82.0042 36.9647C80.7716 37.6383 79.4175 37.9751 77.9421 37.9751C75.4021 37.9751 73.4131 37.3483 71.975 36.0947C70.5369 34.8598 69.8178 33.2506 69.8178 31.2673C69.8178 28.8536 70.7703 27.0013 72.6753 25.7102C73.6278 25.0741 74.7858 24.5876 76.1492 24.2508C77.5312 23.8953 79.1281 23.7269 80.9397 23.7456L84.3575 23.8017C84.2828 23.2591 84.124 22.7352 83.8812 22.23C83.7318 21.9494 83.5264 21.6687 83.2649 21.3881C83.0221 21.1074 82.7139 20.8361 82.3404 20.5741C82.2844 20.5367 82.2284 20.4993 82.1723 20.4619C82.1163 20.4245 82.0603 20.387 82.0042 20.3496C81.9295 20.3122 81.8548 20.2748 81.7801 20.2374C81.7054 20.1812 81.6214 20.1344 81.528 20.097C81.3973 20.0596 81.2665 20.0222 81.1358 19.9848C81.005 19.9473 80.8556 19.9099 80.6876 19.8725H80.5195C80.3887 19.8538 80.258 19.8444 80.1273 19.8444C79.9965 19.8257 79.8378 19.8164 79.651 19.8164C79.016 19.8164 78.381 19.8725 77.746 19.9848C77.1297 20.0783 76.4947 20.228 75.841 20.4338C75.1873 20.6396 74.571 20.8829 73.992 21.1635C73.4131 21.4255 72.8901 21.7342 72.4232 22.0897V16.7852C73.357 16.28 74.599 15.8684 76.1492 15.5503C76.9523 15.3819 77.746 15.251 78.5304 15.1574C79.3148 15.0638 80.0992 15.0171 80.8836 15.0171H84.1334C85.2166 15.0171 86.1971 15.2229 87.0749 15.6345C87.9714 16.0274 88.7371 16.5607 89.3721 17.2343C90.0071 17.9079 90.4927 18.6844 90.8289 19.5638C91.165 20.4245 91.3331 21.3132 91.3331 22.23V26.019H91.3051L91.3331 37.4418H85.1699ZM84.8617 27.4223C84.6376 27.5158 84.2734 27.5626 83.7692 27.5626C83.5077 27.5626 83.2089 27.5719 82.8727 27.5907C82.5552 27.5907 82.2003 27.5907 81.8081 27.5907C79.9218 27.6468 78.5491 27.9181 77.69 28.4046C76.7935 28.9472 76.3453 29.7143 76.3453 30.706C76.3453 31.4731 76.6441 32.0812 77.2417 32.5303C77.8207 32.9793 78.6705 33.2039 79.7911 33.2039C81.3039 33.2039 82.5272 32.6425 83.461 31.5199C84.3948 30.416 84.8617 29.2278 84.8617 27.9555V27.4223Z" fill="white"/>
<path d="M91.376 15.5503H99.2762L102.806 31.3515H102.89L106.672 15.5503H115.777L119.475 31.3515H119.559L123.005 15.5503H130.316L123.621 37.498H114.852L111.126 21.6126H111.042L106.896 37.498H98.0996L91.376 15.5503Z" fill="white"/>
</svg>
